<svg viewBox="0 0 24 24" class="LocationButton__icon"><path fill-rule="evenodd" clip-rule="evenodd" d="M10.3205 22.999C10.2398 22.999 10.1124 22.9834 10.0381 22.965C10.0372 22.9641 10.0354 22.9641 10.0335 22.9641C9.52378 22.8376 9.16714 22.381 9.16714 21.8539V14.2893C9.16714 14.0372 8.96177 13.8309 8.70873 13.8309H1.14507C0.720585 13.8309 0.333692 13.598 0.135661 13.224C-0.00827791 12.9572 -0.0394494 12.6455 0.0503978 12.3521C0.138411 12.0596 0.335525 11.8194 0.60415 11.6755L20.3146 1.13401C20.7538 0.89747 21.3185 0.979983 21.6678 1.33479C22.0235 1.69326 22.1024 2.23601 21.8613 2.68158L11.318 22.393C11.1245 22.7569 10.7468 22.9907 10.3333 22.999H10.3205Z"></path></svg>